<svg width="67" height="64" viewBox="0 0 67 64" fill="none" xmlns="http://www.w3.org/2000/svg">
<path d="M2.45809 29.1835C2.42113 28.7578 2.47306 28.329 2.61059 27.9245C2.74813 27.5199 2.96826 27.1483 3.25702 26.8333C3.54578 26.5183 3.89686 26.2668 4.288 26.0946C4.67913 25.9225 5.10177 25.8336 5.52909 25.8335H11.4167C12.2345 25.8335 13.0187 26.1583 13.597 26.7366C14.1752 27.3148 14.5 28.0991 14.5 28.9168V58.2085C14.5 59.0262 14.1752 59.8105 13.597 60.3887C13.0187 60.967 12.2345 61.2918 11.4167 61.2918H8.07747C7.30575 61.292 6.56202 61.0028 5.99316 60.4813C5.4243 59.9599 5.07168 59.244 5.00492 58.4752L2.45809 29.1835ZM23.75 27.9533C23.75 26.6644 24.5517 25.5113 25.7157 24.9624C28.2579 23.763 32.5884 21.3534 34.5417 18.0959C37.0593 13.8964 37.5341 6.30982 37.6112 4.57236C37.622 4.32878 37.6158 4.0852 37.6482 3.8447C38.066 0.833821 43.8765 4.35036 46.1042 8.06886C47.3144 10.0854 47.4686 12.7355 47.3422 14.8059C47.205 17.0198 46.5559 19.1581 45.9192 21.2825L44.5625 25.8104H61.3004C61.7768 25.8103 62.2467 25.9207 62.6733 26.1328C63.0999 26.3449 63.4715 26.6529 63.759 27.0327C64.0465 27.4126 64.2421 27.8539 64.3305 28.322C64.4188 28.7901 64.3975 29.2723 64.2681 29.7308L55.9894 59.0472C55.8066 59.6937 55.4177 60.2629 54.8817 60.6681C54.3457 61.0733 53.692 61.2923 53.0201 61.2918H26.8334C26.0156 61.2918 25.2314 60.967 24.6531 60.3887C24.0749 59.8105 23.75 59.0262 23.75 58.2085V27.9533Z" stroke="#000A0F" stroke-width="4" stroke-linecap="round" stroke-linejoin="round"/>
</svg>
