<svg width="62" height="62" viewBox="0 0 62 62" fill="none" xmlns="http://www.w3.org/2000/svg">
<path d="M31 0.166504C13.9985 0.166504 0.166687 13.9983 0.166687 30.9998V43.7741C0.166687 46.9314 2.93244 49.4998 6.33335 49.4998H9.41669C10.2344 49.4998 11.0187 49.175 11.5969 48.5968C12.1752 48.0185 12.5 47.2343 12.5 46.4165V30.5589C12.5 29.7412 12.1752 28.9569 11.5969 28.3787C11.0187 27.8004 10.2344 27.4756 9.41669 27.4756H6.61702C8.33135 15.5431 18.5989 6.33317 31 6.33317C43.4012 6.33317 53.6687 15.5431 55.383 27.4756H52.5834C51.7656 27.4756 50.9813 27.8004 50.4031 28.3787C49.8249 28.9569 49.5 29.7412 49.5 30.5589V49.4998C49.5 52.9008 46.7343 55.6665 43.3334 55.6665H37.1667V52.5832H24.8334V61.8332H43.3334C50.1352 61.8332 55.6667 56.3017 55.6667 49.4998C59.0676 49.4998 61.8334 46.9314 61.8334 43.7741V30.9998C61.8334 13.9983 48.0015 0.166504 31 0.166504Z" fill="#000A0F"/>
</svg>
