<svg width="56" height="68" viewBox="0 0 56 68" fill="none" xmlns="http://www.w3.org/2000/svg">
<path d="M28 0.0834961L0.25 12.4168V30.9168C0.25 48.0293 12.09 64.0318 28 67.9168C43.91 64.0318 55.75 48.0293 55.75 30.9168V12.4168L28 0.0834961ZM28 12.4168C30.4533 12.4168 32.806 13.3914 34.5407 15.1261C36.2754 16.8608 37.25 19.2136 37.25 21.6668C37.25 24.1201 36.2754 26.4729 34.5407 28.2076C32.806 29.9423 30.4533 30.9168 28 30.9168C25.5467 30.9168 23.194 29.9423 21.4593 28.2076C19.7245 26.4729 18.75 24.1201 18.75 21.6668C18.75 19.2136 19.7245 16.8608 21.4593 15.1261C23.194 13.3914 25.5467 12.4168 28 12.4168ZM43.8175 49.4168C40.0817 55.1354 34.4991 59.4012 28 61.5035C21.5009 59.4012 15.9183 55.1354 12.1825 49.4168C11.1342 47.8752 10.24 46.3335 9.5 44.6993C9.5 39.6118 17.8558 35.4493 28 35.4493C38.1442 35.4493 46.5 39.5193 46.5 44.6993C45.76 46.3335 44.8658 47.8752 43.8175 49.4168Z" fill="#000A0F"/>
</svg>
