<svg width="73" height="49" viewBox="0 0 73 49" fill="none" xmlns="http://www.w3.org/2000/svg">
<path d="M38.0208 24.3478C39.491 22.7255 40.6194 20.8752 41.4062 18.7967C42.191 16.7182 42.5833 14.5637 42.5833 12.3332C42.5833 10.1026 42.191 7.9481 41.4062 5.86963C40.6194 3.79116 39.491 1.94081 38.0208 0.318588C41.0625 0.724143 43.5972 2.06755 45.625 4.3488C47.6528 6.63005 48.6667 9.2915 48.6667 12.3332C48.6667 15.3748 47.6528 18.0363 45.625 20.3175C43.5972 22.5988 41.0625 23.9422 38.0208 24.3478ZM54.75 48.8332V39.7082C54.75 37.8832 54.3444 36.1474 53.5333 34.5008C52.7222 32.8523 51.6576 31.3943 50.3396 30.1269C52.925 31.0394 55.3208 32.2176 57.527 33.6613C59.7312 35.1071 60.8333 37.1228 60.8333 39.7082V48.8332H54.75ZM60.8333 27.5415V21.4582H54.75V15.3748H60.8333V9.2915H66.9167V15.3748H73V21.4582H66.9167V27.5415H60.8333ZM24.3333 24.4998C20.9875 24.4998 18.1233 23.3085 15.7406 20.9259C13.358 18.5432 12.1667 15.679 12.1667 12.3332C12.1667 8.98734 13.358 6.1231 15.7406 3.74046C18.1233 1.35782 20.9875 0.166504 24.3333 0.166504C27.6792 0.166504 30.5434 1.35782 32.926 3.74046C35.3087 6.1231 36.5 8.98734 36.5 12.3332C36.5 15.679 35.3087 18.5432 32.926 20.9259C30.5434 23.3085 27.6792 24.4998 24.3333 24.4998ZM0 48.8332V40.3165C0 38.5929 0.444083 37.0082 1.33225 35.5624C2.21839 34.1186 3.39653 33.0165 4.86667 32.2561C8.00972 30.6846 11.2035 29.5054 14.4479 28.7186C17.6924 27.9339 20.9875 27.5415 24.3333 27.5415C27.6792 27.5415 30.9743 27.9339 34.2188 28.7186C37.4632 29.5054 40.6569 30.6846 43.8 32.2561C45.2701 33.0165 46.4483 34.1186 47.3344 35.5624C48.2226 37.0082 48.6667 38.5929 48.6667 40.3165V48.8332H0ZM24.3333 18.4165C26.0063 18.4165 27.4389 17.8203 28.6312 16.628C29.8215 15.4377 30.4167 14.0061 30.4167 12.3332C30.4167 10.6603 29.8215 9.22864 28.6312 8.03834C27.4389 6.846 26.0063 6.24984 24.3333 6.24984C22.6604 6.24984 21.2288 6.846 20.0385 8.03834C18.8462 9.22864 18.25 10.6603 18.25 12.3332C18.25 14.0061 18.8462 15.4377 20.0385 16.628C21.2288 17.8203 22.6604 18.4165 24.3333 18.4165ZM6.08333 42.7498H42.5833V40.3165C42.5833 39.7589 42.4444 39.2519 42.1666 38.7957C41.8868 38.3394 41.5187 37.9846 41.0625 37.7311C38.325 36.3623 35.5622 35.3353 32.774 34.6499C29.9858 33.9665 27.1722 33.6248 24.3333 33.6248C21.4944 33.6248 18.6809 33.9665 15.8927 34.6499C13.1045 35.3353 10.3417 36.3623 7.60417 37.7311C7.14792 37.9846 6.78089 38.3394 6.50308 38.7957C6.22325 39.2519 6.08333 39.7589 6.08333 40.3165V42.7498Z" fill="#000A0F"/>
</svg>
